<?xml version="1.0" encoding="UTF-8"?>
<svg id="Layer_1" data-name="Layer 1" xmlns="http://www.w3.org/2000/svg" viewBox="0 0 299.14 92.96">
  <defs>
    <style>
      .cls-1 {
        fill: #fff;
      }

      .cls-2 {
        fill: #007ec6;
      }
    </style>
  </defs>
  <g>
    <g>
      <path class="cls-1" d="m145.02,89.28h-3.71c-.51,0-.94-.03-1.3-.1-.35-.07-.64-.17-.85-.32-.21-.15-.37-.33-.47-.56-.1-.23-.14-.5-.14-.81,0-.24.02-.5.06-.77.04-.27.09-.52.13-.76.05-.24.08-.42.11-.55l-.96-.18c0,.06-.03.17-.06.33-.03.16-.07.36-.11.58-.04.22-.08.45-.11.69-.03.24-.04.45-.04.66,0,.61.14,1.12.42,1.51.28.4.69.69,1.25.88.55.19,1.25.29,2.08.29h4.69v-4.46h-.98v3.57Z"/>
      <rect class="cls-1" x="142.17" y="82.83" width=".98" height="1.13"/>
      <rect class="cls-1" x="140.44" y="82.83" width=".98" height="1.13"/>
      <polygon class="cls-1" points="153.13 89.28 150.51 89.28 150.51 84.77 149.54 84.77 149.54 89.28 147.53 89.28 147.53 90.18 154.12 90.18 154.12 81.61 153.13 81.61 153.13 89.28"/>
      <path class="cls-1" d="m175.21,89.28h-2.72v-2.14c0-.35-.04-.72-.13-1.1-.08-.38-.23-.73-.45-1.07-.21-.33-.51-.6-.89-.8s-.87-.3-1.47-.3c-.42,0-.8.05-1.13.16-.34.11-.64.25-.93.42-.28.18-.54.38-.77.61-.24.23-.46.48-.67.74-.06.07-.11.14-.17.21v-2.14h-.98v5.41h-6.04s0,0,0,0c0,0,0,0,0,0h-1.54v-7.68h-.97v8.57h2.51s0,0,0,0,0,0,0,0h17.34v-4.46h-.98v3.57Zm-9.34-1.99c.12-.15.24-.3.38-.48.19-.24.4-.49.64-.72.23-.24.48-.46.75-.66.27-.2.56-.36.88-.48.31-.12.66-.18,1.03-.18.44,0,.8.09,1.09.26.29.18.51.44.66.79.15.35.22.79.22,1.32v2.14h-5.63v-1.99Z"/>
      <rect class="cls-1" x="174.36" y="82.74" width=".98" height="1.13"/>
      <rect class="cls-1" x="176.08" y="82.74" width=".98" height="1.13"/>
      <polygon class="cls-1" points="183.33 89.28 180.71 89.28 180.71 82.93 179.74 82.93 179.74 89.28 177.72 89.28 177.72 90.18 184.31 90.18 184.31 81.61 183.33 81.61 183.33 89.28"/>
      <rect class="cls-1" x="186.55" y="81.61" width=".97" height="8.57"/>
      <path class="cls-1" d="m190.33,84.21c-.41.22-.69.57-.86,1.03-.16.47-.25,1.06-.25,1.78s.08,1.32.25,1.78c.16.47.45.81.86,1.03.41.22.98.33,1.71.33h1.63v.34c0,.5-.16.89-.48,1.15-.32.26-.83.4-1.52.4-.21,0-.46-.01-.76-.04-.3-.03-.67-.07-1.12-.13l-.15.79c.4.08.76.15,1.09.2.33.05.64.07.94.07.62,0,1.16-.09,1.6-.28.45-.19.79-.47,1.03-.84.24-.37.36-.82.36-1.34v-6.63h-2.61c-.73,0-1.3.11-1.71.33Zm1.71,5.07c-.49,0-.86-.06-1.13-.18-.26-.12-.45-.34-.55-.66-.1-.32-.15-.8-.15-1.42s.05-1.09.15-1.42c.1-.32.28-.54.55-.66.26-.12.64-.18,1.13-.18h1.63v4.51h-1.63Z"/>
      <rect class="cls-1" x="203.47" y="82.83" width=".98" height="1.13"/>
      <rect class="cls-1" x="201.74" y="82.83" width=".98" height="1.13"/>
      <path class="cls-1" d="m206.32,89.28h-3.71c-.51,0-.94-.03-1.3-.1-.35-.07-.64-.17-.85-.32-.21-.15-.37-.33-.47-.56s-.14-.5-.14-.81c0-.24.02-.5.06-.77.04-.27.09-.52.13-.76.05-.24.08-.42.11-.55l-.96-.18c0,.06-.03.17-.06.33-.03.16-.07.36-.11.58-.04.22-.08.45-.11.69-.03.24-.04.45-.04.66,0,.61.14,1.12.42,1.51.28.4.69.69,1.25.88.55.19,1.25.29,2.08.29h4.69v-6.3h-.98v5.41Z"/>
      <path class="cls-1" d="m222.02,84.19c-.47-.21-1.06-.31-1.77-.31-.49,0-.93.04-1.34.11-.4.08-.7.15-.88.23-.05.19-.1.45-.16.77-.06.32-.1.67-.14,1.07-.04.39-.06.79-.06,1.2s.02.83.06,1.21c.03.32.07.58.11.82h-1.55s0,0,0,0c0,0,0,0,0,0h-5.78v-7.68h-.97v8.57h6.75s0,0,0,0,0,0,0,0h7.15v-3.09c0-.79-.12-1.42-.35-1.88-.23-.47-.59-.8-1.06-1.01Zm-3.21,5.02c-.04-.25-.08-.55-.11-.89-.03-.34-.05-.7-.05-1.06s.02-.71.05-1.06c.03-.35.08-.68.13-.99.02-.11.04-.18.06-.28.11-.02.18-.06.32-.08.35-.05.7-.08,1.05-.08.55,0,.99.07,1.32.21.32.14.55.38.69.72.13.34.2.8.2,1.39v2.19h-3.63s0-.04-.01-.08Z"/>
      <path class="cls-1" d="m253.58,89.28h-2.89v-2.19c0-.79-.12-1.42-.35-1.88-.23-.47-.59-.8-1.06-1.01-.47-.21-1.06-.31-1.77-.31-.49,0-.93.04-1.34.11-.4.08-.7.15-.88.23-.05.19-.1.45-.16.77-.06.32-.1.67-.14,1.07-.04.39-.06.79-.06,1.2s.02.83.06,1.21c.03.32.07.58.11.82h-3.16c-.48,0-.93-.09-1.37-.23.01-.01.03-.02.05-.03.46-.35.86-.73,1.19-1.15.33-.42.59-.83.76-1.25.18-.42.26-.8.26-1.14v-.76c-.36-.19-.73-.35-1.1-.48-.37-.13-.74-.22-1.1-.28-.36-.06-.71-.09-1.06-.09s-.69.03-1.05.09c-.36.06-.73.16-1.1.28-.37.13-.74.29-1.1.48v.76c0,.34.09.72.26,1.14.18.42.43.83.76,1.25.33.42.73.8,1.19,1.15.01.01.03.02.05.03-.44.15-.89.23-1.37.23h-3.05v-7.68h-.98v7.68h-2.89v-5.41h-2.61c-.73,0-1.3.11-1.71.33-.41.22-.69.57-.86,1.03-.16.47-.25,1.06-.25,1.78s.08,1.32.25,1.78c.16.47.45.81.86,1.03.41.22.98.33,1.71.33h1.63v.34c0,.5-.16.89-.48,1.15-.32.26-.83.4-1.52.4-.21,0-.46-.01-.76-.04-.3-.03-.67-.07-1.12-.13l-.15.79c.4.08.76.15,1.09.2.33.05.64.07.94.07.62,0,1.16-.09,1.6-.28.45-.19.79-.47,1.03-.84.24-.37.36-.82.36-1.34v-.33h6.92c.65,0,1.27-.1,1.84-.32.19-.07.34-.19.52-.28.18.09.33.21.52.28.57.21,1.18.32,1.84.32h12.63v-8.57h-.98v7.68Zm-25.89,0c-.49,0-.86-.06-1.13-.18-.26-.12-.45-.34-.55-.66-.1-.32-.15-.8-.15-1.42s.05-1.09.15-1.42c.1-.32.28-.54.55-.66.27-.12.64-.18,1.13-.18h1.63v4.51h-1.63Zm10.52-1.81c-.28-.33-.5-.67-.66-1.01-.16-.34-.24-.67-.24-.97v-.17c.3-.13.6-.28.89-.36.47-.13.93-.19,1.37-.19s.9.06,1.37.19c.3.08.6.23.91.36v.17c0,.3-.08.63-.24.97-.16.34-.38.68-.67,1.01-.29.33-.62.63-1.01.91-.11.08-.25.12-.37.19-.12-.07-.25-.11-.37-.19-.39-.27-.72-.58-1-.91Zm7.86,1.73c-.04-.25-.08-.55-.11-.89-.03-.34-.05-.7-.05-1.06s.02-.71.05-1.06c.03-.35.08-.68.13-.99.02-.11.04-.18.06-.28.11-.02.18-.06.32-.08.35-.05.7-.08,1.05-.08.55,0,.99.07,1.32.21.32.14.55.38.69.72.13.34.2.8.2,1.39v2.19h-3.63s0-.04-.01-.08Z"/>
      <rect class="cls-1" x="256.73" y="81.61" width=".97" height="8.57"/>
      <rect class="cls-1" x="265.5" y="81.61" width=".98" height="1.13"/>
      <rect class="cls-1" x="263.78" y="81.61" width=".98" height="1.13"/>
      <rect class="cls-1" x="277.97" y="91.31" width=".98" height="1.13"/>
      <rect class="cls-1" x="279.69" y="91.31" width=".98" height="1.13"/>
      <rect class="cls-1" x="282.53" y="82.74" width=".98" height="1.13"/>
      <rect class="cls-1" x="287.8" y="81.61" width=".98" height="1.13"/>
      <rect class="cls-1" x="289.52" y="81.61" width=".98" height="1.13"/>
      <rect class="cls-1" x="295.16" y="82.74" width=".98" height="1.13"/>
      <rect class="cls-1" x="293.43" y="82.74" width=".98" height="1.13"/>
      <path class="cls-1" d="m298.16,81.61v7.68h-2.89v-3.57h-.98v3.57h-2.72v-5.41h-2.61c-.73,0-1.3.11-1.71.33-.41.22-.69.57-.86,1.03-.16.47-.25,1.06-.25,1.78s.08,1.3.25,1.72c.08.21.19.39.33.54h-3.21v-3.57h-.98v3.57h-2.72v-3.57h-.98v3.57h-11.22v-5.41h-2.61c-.73,0-1.3.11-1.71.33-.41.22-.69.57-.86,1.03-.16.47-.25,1.06-.25,1.78s.08,1.32.25,1.78c.16.47.45.81.86,1.03.41.22.98.33,1.71.33h34.14v-8.57h-.98Zm-34.28,7.5c-.26-.12-.45-.34-.55-.66-.1-.32-.15-.8-.15-1.42s.05-1.09.15-1.42c.1-.32.28-.54.55-.66.26-.12.64-.18,1.13-.18h1.63v4.51h-1.63c-.49,0-.86-.06-1.13-.18Zm23.96,0c-.26-.12-.45-.34-.55-.66-.1-.32-.15-.8-.15-1.42s.05-1.09.15-1.42c.1-.32.28-.54.55-.66.26-.12.64-.18,1.13-.18h1.63v4.51h-1.63c-.49,0-.86-.06-1.13-.18Z"/>
    </g>
    <g>
      <path class="cls-2" d="m148.3,71.13c0,.3-.03.61-.1.91-.07.3-.26.56-.59.76s-.89.3-1.68.3c-.67,0-1.49-.13-1.92-.24-.43-.11-.76-.32-.98-.62-.23-.3-.37-.69-.43-1.15-.04-.28-.06-.71-.08-1.29-.01-.57,0-3.98.02-5.09h-4.7c0,.72-.04,5.36-.02,5.87.02.51.05.94.09,1.27.15,1.28.59,2.4,1.34,3.34.75.94,1.72,1.63,2.92,2.07s2.22.58,3.69.58,2.69-.29,3.76-.86c1.07-.57,1.9-1.37,2.49-2.38.59-1.02.89-2.17.89-3.47v-12.28h-4.72v12.28Z"/>
      <path class="cls-2" d="m158.88,54.34c2.13,1.21,6.08-.62,6.35-3.67h-.99c-.84,1.07-2.94,2.57-3.74,1.09h-2.53l-2.08,2.2,1.82,1.58,1.17-1.21Z"/>
      <polygon class="cls-2" points="176.12 66.85 163.7 66.85 163.7 57.64 159.15 57.64 159.15 66.85 156.47 66.85 156.47 71.59 180.67 71.59 180.67 54.18 176.12 54.18 176.12 66.85"/>
      <rect class="cls-2" x="183.63" y="54.18" width="4.56" height="17.41"/>
      <path class="cls-2" d="m241.57,60.88c-.61-.66-1.35-1.17-2.22-1.51-.87-.34-1.85-.52-2.96-.52h-2.35l.18-.33c.13-.25.27-.51.42-.77.14-.26,1.74-2.89,1.95-3.23s.48-.77.82-1.27l-3.65-2.57c-.44.67-.79,1.22-1.06,1.65-.27.43-.47.77-.61,1.01s-.24.43-.33.57l-3.01,5.28,3.13,4.41h4.51c.32,0,.58.07.79.21.21.14.37.42.47.83.1.41.15,1.02.15,1.83v.38h-29.44v-8h-5.76c-1.38,0-2.79.26-3.89.78-1.1.52-1.97,1.27-2.6,2.26-.63.98-.95,2.16-.95,3.52s.31,2.5.95,3.42c.63.92,1.5,1.61,2.6,2.07,1.1.46,2.63.69,4,.69h40.73v-5.12c0-1.19-.16-2.26-.48-3.19-.32-.93-.79-1.73-1.4-2.4Zm-41.04,5.93c-.24-.03-.44-.14-.58-.34-.14-.2-.21-.55-.21-1.06,0-.61.09-1.03.28-1.29.18-.25.4-.4.66-.45.25-.05.48-.08.68-.08h2.46v3.25h-2.46c-.3,0-.58-.01-.82-.04Z"/>
      <path class="cls-2" d="m294.58,60.58v6.27h-1.74c-.3,0-.97-.05-1.26-.16-.12-.05-.24-.1-.35-.16.23-.92.36-.44.36-1.61v-4.54l-4.56,1.38v3.15c0,1.03-.06.27-.16.77-.11.5-.29.82-.55.96-.26.14-.64.21-1.12.21h-1.51v-5.38l-4.56,1.18v4.2h-25.11v-8h-4.56v13.07c0,.77-.12,1.35-.35,1.74-.24.39-.58.58-1.03.58h-3.4l-1.09,4.64c.34.03.64.06.92.08.28.02,2.39.03,2.58.03,1.4,0,2.61-.31,3.66-.92,1.04-.61,1.85-1.46,2.42-2.52s.86-2.27.86-3.62v-.33h30.45c1.68,0,3.07-.3,4.18-.91.11-.06.2-.13.3-.2.39.23.8.43,1.24.6.88.34,1.77.5,2.66.5h6.3v-12.55l-4.56,1.53Z"/>
      <circle class="cls-2" cx="145.18" cy="54.52" r="2.3"/>
      <circle class="cls-2" cx="200.46" cy="54.52" r="2.3"/>
      <circle class="cls-2" cx="205.62" cy="54.52" r="2.3"/>
      <circle class="cls-2" cx="285.6" cy="56.92" r="2.3"/>
      <circle class="cls-2" cx="291.85" cy="56.92" r="2.3"/>
      <circle class="cls-2" cx="288.75" cy="52.45" r="2.3"/>
    </g>
    <path class="cls-1" d="m268.33,45.75h-8.35l-11.62-24.93h-7.25c-1.37,0-2.1.91-2.35,1.29-.23.4-.76,1.44-.18,2.68l4.88,10.45c.84,1.77,2.63,2.91,4.61,2.91h8.18v7.59s-8.18,0-8.18,0c-4.91,0-9.41-2.86-11.49-7.31l-4.86-10.43c-1.52-3.24-1.27-6.96.63-9.97,1.92-3.01,5.19-4.81,8.76-4.81h12.11l8.58,18.45,5.06,10.91,1.47,3.16Z"/>
    <path class="cls-1" d="m201.7,22.12c-.23.4-.76,1.44-.18,2.68l4.88,10.45c.83,1.77,2.63,2.91,4.61,2.91h8.18v7.59h-8.18c-4.91,0-9.41-2.86-11.49-7.31l-4.86-10.43c-1.52-3.24-1.27-6.96.63-9.97,1.92-3.01,5.19-4.81,8.76-4.81h12.11l8.58,18.45,6.53,14.07h-8.35l-11.62-24.93h-7.25c-1.37,0-2.1.91-2.35,1.29Z"/>
    <polygon class="cls-1" points="197.25 45.75 184.75 45.75 169.59 13.24 177.99 13.24 189.56 38.16 197.25 38.16 197.25 45.75"/>
    <path class="cls-1" d="m151.7,13.24h7.83l15.48,32.52h-8.26l-3.59-7.9h-15.1l-3.59,7.9h-8.26l15.48-32.52Zm-1.32,19.52h10.47l-5.24-11.58-5.24,11.58Z"/>
    <polygon class="cls-1" points="299.14 13.23 291.55 13.23 291.55 37.14 281.02 14.46 280.48 13.23 275.91 13.23 272.12 13.23 268.33 13.23 268.33 36.66 272.16 44.97 272.53 45.76 275.91 45.76 275.91 21.42 281.51 33.53 286.66 44.64 287.19 45.76 295.55 45.76 295.55 45.75 299.14 45.75 299.14 13.23"/>
  </g>
  <g>
    <path class="cls-1" d="m46.34,90.18h11.22l-20.31-43.58c-.37-.79-1.16-1.3-2.03-1.3H14.53c-10.61,0-17.63,11.02-13.15,20.64l5.74,12.3c3.4,7.28,10.71,11.94,18.74,11.94h9.26l-5.23-11.22h-5.07c-3.75,0-7.17-2.18-8.76-5.58l-4.65-9.97c-1.5-3.21.85-6.89,4.39-6.89h14.83l15.7,33.66Z"/>
    <polygon class="cls-1" points="79.89 90.18 68.67 90.18 47.74 45.3 58.98 45.3 79.89 90.18"/>
    <path class="cls-2" d="m79.86,0c-21.56,0-39.62,15.2-44.04,35.46h10.78c4.18-14.42,17.5-25,33.26-25,19.08,0,34.62,15.54,34.62,34.62s-15.54,34.62-34.62,34.62c-1.7,0-3.38-.12-5.02-.36l5.04,10.82c24.84,0,45.06-20.23,45.06-45.08S104.71,0,79.86,0Z"/>
  </g>
</svg>